<?xml version="1.0" encoding="UTF-8" standalone="no"?>
<svg
   width="206.11899"
   height="26.9011"
   viewBox="0 0 206.11898 26.9011"
   fill="none"
   version="1.1"
   id="svg19"
   sodipodi:docname="LOGO.svg"
   inkscape:version="1.3.2 (091e20e, 2023-11-25, custom)"
   xmlns:inkscape="http://www.inkscape.org/namespaces/inkscape"
   xmlns:sodipodi="http://sodipodi.sourceforge.net/DTD/sodipodi-0.dtd"
   xmlns="http://www.w3.org/2000/svg"
   xmlns:svg="http://www.w3.org/2000/svg">
  <defs
     id="defs19" />
  <sodipodi:namedview
     id="namedview19"
     pagecolor="#505050"
     bordercolor="#ffffff"
     borderopacity="1"
     inkscape:showpageshadow="0"
     inkscape:pageopacity="0"
     inkscape:pagecheckerboard="1"
     inkscape:deskcolor="#505050"
     inkscape:zoom="3.1225961"
     inkscape:cx="78.140109"
     inkscape:cy="19.374904"
     inkscape:window-width="1920"
     inkscape:window-height="1027"
     inkscape:window-x="-8"
     inkscape:window-y="-8"
     inkscape:window-maximized="1"
     inkscape:current-layer="layer1"
     showgrid="false"
     showguides="true" />
  <g
     inkscape:groupmode="layer"
     id="layer3"
     inkscape:label="dominguez"
     transform="translate(-1.4250158,0.010165)">
    <path
       d="M 117,16.9504 V 9.95037 h 3.61 c 0.647,0 1.22,0.09333 1.72,0.28003 0.5,0.1866 0.92,0.4433 1.26,0.77 0.34,0.32 0.593,0.69 0.76,1.11 0.173,0.42 0.26,0.8666 0.26,1.34 0,0.48 -0.087,0.93 -0.26,1.35 -0.167,0.42 -0.423,0.7933 -0.77,1.12 -0.34,0.32 -0.76,0.5733 -1.26,0.76 -0.493,0.18 -1.063,0.27 -1.71,0.27 z m 1.3,-1.01 -0.1,-0.19 h 2.36 c 0.473,0 0.877,-0.06 1.21,-0.18 0.34,-0.1267 0.617,-0.2967 0.83,-0.51 0.22,-0.2134 0.38,-0.4567 0.48,-0.73 0.107,-0.2734 0.16,-0.5667 0.16,-0.88 0,-0.3067 -0.053,-0.5967 -0.16,-0.87 -0.1,-0.2734 -0.26,-0.5167 -0.48,-0.73 -0.213,-0.22 -0.49,-0.39 -0.83,-0.51 -0.333,-0.1267 -0.737,-0.19 -1.21,-0.19 h -2.39 l 0.13,-0.17 z"
       fill="#e2e4e5"
       id="path1" />
    <path
       d="m 131.444,17.0504 c -0.627,0 -1.203,-0.09 -1.73,-0.27 -0.52,-0.1867 -0.973,-0.4434 -1.36,-0.77 -0.387,-0.3334 -0.687,-0.7167 -0.9,-1.15 -0.207,-0.44 -0.31,-0.9134 -0.31,-1.42 0,-0.5067 0.103,-0.9767 0.31,-1.41 0.213,-0.44 0.513,-0.8234 0.9,-1.15 0.387,-0.3334 0.84,-0.59 1.36,-0.77 0.527,-0.1867 1.103,-0.28003 1.73,-0.28003 0.627,0 1.2,0.09333 1.72,0.28003 0.527,0.18 0.98,0.4366 1.36,0.77 0.387,0.3266 0.687,0.71 0.9,1.15 0.213,0.4333 0.32,0.9033 0.32,1.41 0,0.5066 -0.107,0.98 -0.32,1.42 -0.213,0.4333 -0.513,0.8166 -0.9,1.15 -0.38,0.3266 -0.833,0.5833 -1.36,0.77 -0.52,0.18 -1.093,0.27 -1.72,0.27 z m 0,-1.24 c 0.44,0 0.84,-0.06 1.2,-0.18 0.36,-0.12 0.673,-0.2867 0.94,-0.5 0.267,-0.22 0.473,-0.4734 0.62,-0.76 0.147,-0.2867 0.22,-0.5967 0.22,-0.93 0,-0.3334 -0.073,-0.6434 -0.22,-0.93 -0.147,-0.2867 -0.353,-0.5367 -0.62,-0.75 -0.267,-0.22 -0.58,-0.39 -0.94,-0.51 -0.36,-0.12 -0.76,-0.18 -1.2,-0.18 -0.433,0 -0.833,0.06 -1.2,0.18 -0.367,0.12 -0.683,0.29 -0.95,0.51 -0.26,0.2133 -0.463,0.4633 -0.61,0.75 -0.14,0.2866 -0.21,0.5966 -0.21,0.93 0,0.3333 0.07,0.6433 0.21,0.93 0.147,0.2866 0.35,0.54 0.61,0.76 0.267,0.2133 0.583,0.38 0.95,0.5 0.367,0.12 0.767,0.18 1.2,0.18 z"
       fill="#e2e4e5"
       id="path2" />
    <path
       d="M 138.797,16.9504 V 9.95037 h 1.23 l 3.19,3.95003 h -0.59 l 3.19,-3.95003 h 1.23 v 7.00003 h -1.29 v -2.73 c 0,-0.5534 0.013,-1.0734 0.04,-1.56 0.027,-0.4867 0.08,-0.9834 0.16,-1.49 l 0.13,0.47 -2.84,3.41 h -0.66 l -2.84,-3.42 0.14,-0.46 c 0.08,0.5066 0.133,1.0033 0.16,1.49 0.027,0.4866 0.04,1.0066 0.04,1.56 v 2.73 z"
       fill="#e2e4e5"
       id="path3" />
    <path
       d="m 150.734,16.9504 v -1.22 h 1.85 v -4.56 h -1.85 V 9.95037 h 5 v 1.22003 h -1.85 v 4.56 h 1.85 v 1.22 z"
       fill="#e2e4e5"
       id="path4" />
    <path
       d="M 159.412,16.9504 V 9.95037 h 1.27 l 5.46,5.47003 -0.12,0.04 c -0.033,-0.22 -0.063,-0.4434 -0.09,-0.67 -0.02,-0.2334 -0.037,-0.4667 -0.05,-0.7 -0.013,-0.2334 -0.027,-0.4667 -0.04,-0.7 -0.007,-0.2334 -0.013,-0.46 -0.02,-0.68 0,-0.2267 0,-0.4467 0,-0.66 V 9.95037 h 1.29 v 7.00003 h -1.29 l -5.48,-5.39 0.16,-0.07 c 0.013,0.1133 0.027,0.2466 0.04,0.4 0.013,0.1533 0.03,0.32 0.05,0.5 0.02,0.18 0.037,0.3733 0.05,0.58 0.02,0.2 0.033,0.41 0.04,0.63 0.013,0.2133 0.02,0.4266 0.02,0.64 v 2.71 z"
       fill="#e2e4e5"
       id="path5" />
    <path
       d="m 174.342,17.0504 c -0.573,0 -1.113,-0.0767 -1.62,-0.23 -0.5,-0.1534 -0.943,-0.38 -1.33,-0.68 -0.387,-0.3 -0.69,-0.6734 -0.91,-1.12 -0.22,-0.4534 -0.33,-0.98 -0.33,-1.58 0,-0.5067 0.11,-0.9767 0.33,-1.41 0.227,-0.44 0.537,-0.82 0.93,-1.14 0.4,-0.3267 0.867,-0.58 1.4,-0.76 0.533,-0.18003 1.107,-0.27003 1.72,-0.27003 0.513,0 0.987,0.05667 1.42,0.17003 0.44,0.1133 0.823,0.26 1.15,0.44 0.333,0.18 0.597,0.37 0.79,0.57 l -0.82,0.92 c -0.227,-0.1734 -0.473,-0.3234 -0.74,-0.45 -0.26,-0.1334 -0.543,-0.24 -0.85,-0.32 -0.3,-0.08 -0.62,-0.12 -0.96,-0.12 -0.42,0 -0.813,0.06 -1.18,0.18 -0.36,0.12 -0.677,0.2866 -0.95,0.5 -0.267,0.2133 -0.477,0.4633 -0.63,0.75 -0.153,0.2866 -0.23,0.6 -0.23,0.94 0,0.4266 0.08,0.7933 0.24,1.1 0.16,0.3 0.377,0.5466 0.65,0.74 0.28,0.1933 0.597,0.3366 0.95,0.43 0.353,0.0866 0.717,0.13 1.09,0.13 0.393,0 0.757,-0.0367 1.09,-0.11 0.34,-0.0734 0.633,-0.1767 0.88,-0.31 0.253,-0.1334 0.447,-0.29 0.58,-0.47 0.14,-0.1867 0.203,-0.39 0.19,-0.61 l -0.01,-0.15 0.19,0.29 h -2.92 v -1.14 h 4.07 c 0.013,0.1 0.023,0.19 0.03,0.27 0.007,0.08 0.01,0.1466 0.01,0.2 0,0.0466 0,0.0833 0,0.11 0,0.5266 -0.103,0.9866 -0.31,1.38 -0.2,0.3933 -0.49,0.72 -0.87,0.98 -0.373,0.2533 -0.82,0.4466 -1.34,0.58 -0.513,0.1266 -1.083,0.19 -1.71,0.19 z"
       fill="#e2e4e5"
       id="path6" />
    <path
       d="m 185.021,17.0104 c -0.713,0 -1.34,-0.1467 -1.88,-0.44 -0.533,-0.3 -0.95,-0.7067 -1.25,-1.22 -0.3,-0.5134 -0.45,-1.0967 -0.45,-1.75 V 9.94037 h 1.31 v 3.62003 c 0,0.4333 0.1,0.82 0.3,1.16 0.2,0.3333 0.473,0.5966 0.82,0.79 0.347,0.1933 0.73,0.29 1.15,0.29 0.453,0 0.853,-0.0967 1.2,-0.29 0.353,-0.1934 0.63,-0.4567 0.83,-0.79 0.2,-0.34 0.3,-0.7267 0.3,-1.16 V 9.94037 h 1.26 v 3.66003 c 0,0.6533 -0.15,1.2366 -0.45,1.75 -0.3,0.5133 -0.717,0.92 -1.25,1.22 -0.533,0.2933 -1.163,0.44 -1.89,0.44 z"
       fill="#e2e4e5"
       id="path7" />
    <path
       d="M 192.068,16.9504 V 9.95037 h 5.98 v 1.18003 h -4.7 v 4.64 h 4.74 v 1.18 z m 0.7,-3 v -1.16 h 4.77 v 1.16 z"
       fill="#e2e4e5"
       id="path8" />
    <path
       d="m 200.624,16.9504 v -0.91 l 5.07,-5.22 0.55,0.37 h -5.36 V 9.95037 h 6.55 v 0.90003 l -5.07,5.23 -0.54,-0.35 h 5.72 v 1.22 z"
       fill="#e2e4e5"
       id="path9" />
  </g>
  <g
     inkscape:groupmode="layer"
     id="layer2"
     inkscape:label="cross"
     transform="translate(-0.70318183)">
    <path
       d="m 95.9324,16.0654 -2e-4,-1.8748 13.2748,-2e-4 -3.942,1.8426 -9.3641,6e-4"
       fill="#ff5773"
       id="path10" />
    <path
       d="m 91.5047,25.0899 -3.9707,1.8112 4e-4,-10.8678 -13.2828,10e-5 0.0165,-4.5442 3.9726,-1.82577 -0.0192,4.52717 13.283,-3e-4 z"
       fill="#ff5773"
       id="path11" />
    <path
       d="M 91.5048,9.69425 91.5045,0 l -3.9699,1.84451 -4e-4,7.84974 z"
       fill="#ff5773"
       id="path12" />
  </g>
  <g
     inkscape:groupmode="layer"
     id="layer1"
     inkscape:label="Michael"
     transform="translate(0,1.995165)">
    <path
       d="M 0,14.9504 V 7.95037 H 1.23 L 4.42,11.9004 H 3.83 L 7.02,7.95037 H 8.25 V 14.9504 H 6.96 v -2.73 C 6.96,11.667 6.97333,11.147 7,10.6604 7.02667,10.1737 7.08,9.67704 7.16,9.17037 l 0.13,0.47 -2.84,3.41003 H 3.79 l -2.84,-3.42003 0.14,-0.46 c 0.08,0.50667 0.13333,1.00333 0.16,1.49003 0.02667,0.4866 0.04,1.0066 0.04,1.56 v 2.73 z"
       fill="#e2e4e5"
       id="path13" />
    <path
       d="m 11.9366,14.9504 v -1.22 h 1.85 V 9.17037 h -1.85 v -1.22 h 5 v 1.22 h -1.85 v 4.56003 h 1.85 v 1.22 z"
       fill="#e2e4e5"
       id="path14" />
    <path
       d="m 24.0987,15.0504 c -0.58,0 -1.1233,-0.0834 -1.6299,-0.25 -0.5001,-0.1734 -0.94,-0.42 -1.32,-0.74 -0.3734,-0.32 -0.6667,-0.7 -0.8801,-1.14 -0.2133,-0.4467 -0.32,-0.94 -0.32,-1.48 0,-0.52 0.11,-0.9967 0.33,-1.43 0.22,-0.44003 0.5201,-0.82003 0.9001,-1.14003 0.38,-0.32 0.82,-0.56667 1.32,-0.74 0.5,-0.18 1.03,-0.27 1.59,-0.27 0.4533,0 0.8833,0.05667 1.2899,0.17 0.4134,0.10667 0.7901,0.24667 1.1301,0.42 0.34,0.17333 0.6166,0.35667 0.83,0.55 l -0.75,1.07003 c -0.22,-0.1867 -0.4601,-0.35336 -0.7201,-0.50003 -0.26,-0.14667 -0.5466,-0.26 -0.8599,-0.34 -0.3067,-0.08667 -0.6467,-0.13 -1.02,-0.13 -0.34,0 -0.67,0.05333 -0.99,0.16 -0.32,0.10667 -0.6101,0.26333 -0.8701,0.47 -0.26,0.2 -0.4666,0.44663 -0.6199,0.74003 -0.1534,0.2866 -0.2301,0.6133 -0.2301,0.98 0,0.3933 0.08,0.7366 0.24,1.03 0.16,0.2933 0.3767,0.54 0.6501,0.74 0.28,0.2 0.5933,0.3533 0.9399,0.46 0.3467,0.1 0.7034,0.15 1.0701,0.15 0.4,0 0.7533,-0.05 1.06,-0.15 0.3066,-0.1067 0.5766,-0.2334 0.8099,-0.38 0.24,-0.1534 0.4567,-0.3 0.6501,-0.44 l 0.62,1.05 c -0.1934,0.1533 -0.4534,0.32 -0.7801,0.5 -0.3266,0.18 -0.6999,0.3333 -1.1199,0.46 -0.4134,0.12 -0.8534,0.18 -1.3201,0.18 z"
       fill="#e2e4e5"
       id="path15" />
    <path
       d="M 36.222,14.9504 V 7.95037 h 1.3 v 7.00003 z m -5.89,0 V 7.95037 h 1.3 v 7.00003 z m 0.54,-2.84 0.01,-1.22 h 5.97 v 1.22 z"
       fill="#e2e4e5"
       id="path16" />
    <path
       d="m 40.1437,14.9504 3.4401,-7.00003 h 1.3799 l 3.4201,7.00003 h -1.39 l -2.25,-4.58 c -0.0667,-0.1334 -0.1301,-0.26 -0.1901,-0.38003 -0.06,-0.12667 -0.1166,-0.25 -0.1699,-0.37 -0.0534,-0.12667 -0.1067,-0.25333 -0.16,-0.38 -0.0534,-0.13333 -0.1034,-0.27333 -0.1501,-0.42 l 0.34,-0.01 c -0.0533,0.15333 -0.1066,0.3 -0.16,0.44 -0.0533,0.13333 -0.1099,0.26333 -0.1699,0.39 -0.06,0.12667 -0.12,0.25333 -0.18,0.38003 -0.06,0.12 -0.12,0.2466 -0.18,0.38 l -2.2401,4.55 z m 1.5301,-1.5 0.48,-1.13 h 4.16 l 0.1899,1.13 z"
       fill="#e2e4e5"
       id="path17" />
    <path
       d="M 50.9961,14.9504 V 7.95037 h 5.98 v 1.18 h -4.7 v 4.64003 h 4.74 v 1.18 z m 0.7,-3 v -1.16 h 4.77 v 1.16 z"
       fill="#e2e4e5"
       id="path18" />
    <path
       d="M 60.332,14.9504 V 7.95037 h 1.3 v 5.80003 h 4.63 v 1.2 z"
       fill="#e2e4e5"
       id="path19" />
  </g>
</svg>
